<mxfile host="app.diagrams.net" modified="2024-02-27T21:05:38.535Z" agent="Mozilla/5.0 (Windows NT 10.0; Win64; x64) AppleWebKit/537.36 (KHTML, like Gecko) Chrome/122.0.0.0 Safari/537.36" etag="uSKNQVBFBk7XHRo1OqXw" version="23.1.7" type="device">
  <diagram name="Page-1" id="EU5pdF4_t8vN2uyLVRtP">
    <mxGraphModel dx="1776" dy="1793" grid="1" gridSize="10" guides="1" tooltips="1" connect="1" arrows="1" fold="1" page="1" pageScale="1" pageWidth="827" pageHeight="1169" math="0" shadow="0">
      <root>
        <mxCell id="0" />
        <mxCell id="1" parent="0" />
        <mxCell id="4t_3A3ze6PCHeQ92FLgK-5" value="" style="rounded=0;whiteSpace=wrap;html=1;dashed=1;dashPattern=1 4;" vertex="1" parent="1">
          <mxGeometry x="220" y="10" width="980" height="520" as="geometry" />
        </mxCell>
        <mxCell id="U0vqNQzGhyPI1oqfbdpY-1" value="&lt;b&gt;&lt;i&gt;&lt;font style=&quot;font-size: 13px;&quot;&gt;Client&lt;/font&gt;&lt;/i&gt;&lt;/b&gt;" style="rounded=0;whiteSpace=wrap;html=1;" parent="1" vertex="1">
          <mxGeometry x="40" y="40" width="120" height="60" as="geometry" />
        </mxCell>
        <mxCell id="U0vqNQzGhyPI1oqfbdpY-2" value="" style="endArrow=none;html=1;rounded=0;entryX=0.5;entryY=1;entryDx=0;entryDy=0;" parent="1" target="U0vqNQzGhyPI1oqfbdpY-1" edge="1">
          <mxGeometry width="50" height="50" relative="1" as="geometry">
            <mxPoint x="100" y="520" as="sourcePoint" />
            <mxPoint x="130" y="160" as="targetPoint" />
          </mxGeometry>
        </mxCell>
        <mxCell id="U0vqNQzGhyPI1oqfbdpY-3" value="&lt;i&gt;&lt;font style=&quot;font-size: 13px;&quot;&gt;&lt;b&gt;BearerTokenAuthenticationFilter&lt;/b&gt;&lt;br&gt;method&lt;b&gt;: doInternalFilter&lt;/b&gt;&lt;br&gt;&lt;/font&gt;&lt;/i&gt;" style="rounded=0;whiteSpace=wrap;html=1;" parent="1" vertex="1">
          <mxGeometry x="240" y="40" width="210" height="60" as="geometry" />
        </mxCell>
        <mxCell id="U0vqNQzGhyPI1oqfbdpY-4" value="" style="endArrow=none;html=1;rounded=0;entryX=0.5;entryY=1;entryDx=0;entryDy=0;" parent="1" target="U0vqNQzGhyPI1oqfbdpY-3" edge="1">
          <mxGeometry width="50" height="50" relative="1" as="geometry">
            <mxPoint x="345" y="520" as="sourcePoint" />
            <mxPoint x="450" y="200" as="targetPoint" />
          </mxGeometry>
        </mxCell>
        <mxCell id="U0vqNQzGhyPI1oqfbdpY-6" value="" style="endArrow=classic;html=1;rounded=0;" parent="1" edge="1">
          <mxGeometry width="50" height="50" relative="1" as="geometry">
            <mxPoint x="102" y="160" as="sourcePoint" />
            <mxPoint x="342" y="160" as="targetPoint" />
          </mxGeometry>
        </mxCell>
        <mxCell id="U0vqNQzGhyPI1oqfbdpY-7" value="client request with header &lt;b&gt;Authorization&lt;/b&gt;=Bearer &amp;lt;Access Token&amp;gt;" style="text;html=1;align=center;verticalAlign=middle;whiteSpace=wrap;rounded=0;" parent="1" vertex="1">
          <mxGeometry x="130" y="120" width="190" height="30" as="geometry" />
        </mxCell>
        <mxCell id="U0vqNQzGhyPI1oqfbdpY-8" value="&lt;i style=&quot;&quot;&gt;&lt;font style=&quot;font-size: 13px;&quot;&gt;&lt;b&gt;ProviderManager&lt;/b&gt;&lt;br&gt;method&lt;b&gt;: authenticate&lt;/b&gt;&lt;br&gt;&lt;/font&gt;&lt;/i&gt;" style="rounded=0;whiteSpace=wrap;html=1;" parent="1" vertex="1">
          <mxGeometry x="520" y="40" width="140" height="60" as="geometry" />
        </mxCell>
        <mxCell id="U0vqNQzGhyPI1oqfbdpY-9" value="" style="endArrow=none;html=1;rounded=0;entryX=0.5;entryY=1;entryDx=0;entryDy=0;" parent="1" target="U0vqNQzGhyPI1oqfbdpY-8" edge="1">
          <mxGeometry width="50" height="50" relative="1" as="geometry">
            <mxPoint x="590" y="520" as="sourcePoint" />
            <mxPoint x="610" y="170" as="targetPoint" />
          </mxGeometry>
        </mxCell>
        <mxCell id="U0vqNQzGhyPI1oqfbdpY-10" value="" style="endArrow=classic;html=1;rounded=0;" parent="1" edge="1">
          <mxGeometry width="50" height="50" relative="1" as="geometry">
            <mxPoint x="348" y="200" as="sourcePoint" />
            <mxPoint x="588" y="200" as="targetPoint" />
          </mxGeometry>
        </mxCell>
        <mxCell id="U0vqNQzGhyPI1oqfbdpY-11" value="&lt;b&gt;Authentication &lt;/b&gt;object with &amp;lt;Access Token&amp;gt;" style="text;html=1;align=center;verticalAlign=middle;whiteSpace=wrap;rounded=0;" parent="1" vertex="1">
          <mxGeometry x="400" y="160" width="130" height="30" as="geometry" />
        </mxCell>
        <mxCell id="U0vqNQzGhyPI1oqfbdpY-12" value="&lt;b&gt;&lt;font style=&quot;font-size: 13px;&quot;&gt;JwtAuthenticationProvider&lt;br&gt;&lt;/font&gt;&lt;/b&gt;&lt;i style=&quot;border-color: var(--border-color);&quot;&gt;&lt;font style=&quot;border-color: var(--border-color); font-size: 13px;&quot;&gt;method&lt;b style=&quot;border-color: var(--border-color);&quot;&gt;: authenticate&lt;/b&gt;&lt;/font&gt;&lt;/i&gt;&lt;b&gt;&lt;font style=&quot;font-size: 13px;&quot;&gt;&lt;br&gt;&lt;/font&gt;&lt;/b&gt;" style="rounded=0;whiteSpace=wrap;html=1;" parent="1" vertex="1">
          <mxGeometry x="760" y="40" width="180" height="60" as="geometry" />
        </mxCell>
        <mxCell id="U0vqNQzGhyPI1oqfbdpY-13" value="" style="endArrow=none;html=1;rounded=0;entryX=0.45;entryY=1.067;entryDx=0;entryDy=0;entryPerimeter=0;" parent="1" edge="1">
          <mxGeometry width="50" height="50" relative="1" as="geometry">
            <mxPoint x="841" y="520" as="sourcePoint" />
            <mxPoint x="841" y="101.01999999999998" as="targetPoint" />
          </mxGeometry>
        </mxCell>
        <mxCell id="U0vqNQzGhyPI1oqfbdpY-14" value="" style="endArrow=classic;html=1;rounded=0;" parent="1" edge="1">
          <mxGeometry width="50" height="50" relative="1" as="geometry">
            <mxPoint x="590" y="257" as="sourcePoint" />
            <mxPoint x="842" y="257" as="targetPoint" />
          </mxGeometry>
        </mxCell>
        <mxCell id="U0vqNQzGhyPI1oqfbdpY-15" value="&lt;b&gt;Authentication &lt;/b&gt;object with &amp;lt;Access Token&amp;gt;" style="text;html=1;align=center;verticalAlign=middle;whiteSpace=wrap;rounded=0;" parent="1" vertex="1">
          <mxGeometry x="650" y="220" width="130" height="30" as="geometry" />
        </mxCell>
        <mxCell id="U0vqNQzGhyPI1oqfbdpY-16" value="&lt;i style=&quot;&quot;&gt;&lt;font style=&quot;font-size: 13px;&quot;&gt;&lt;b&gt;KeycloakRoleConverter&lt;/b&gt;&lt;br&gt;method&lt;b&gt;: convert&lt;/b&gt;&lt;br&gt;&lt;/font&gt;&lt;/i&gt;" style="rounded=0;whiteSpace=wrap;html=1;" parent="1" vertex="1">
          <mxGeometry x="1030" y="40" width="150" height="60" as="geometry" />
        </mxCell>
        <mxCell id="U0vqNQzGhyPI1oqfbdpY-17" value="" style="endArrow=none;html=1;rounded=0;entryX=0.5;entryY=1;entryDx=0;entryDy=0;" parent="1" target="U0vqNQzGhyPI1oqfbdpY-16" edge="1">
          <mxGeometry width="50" height="50" relative="1" as="geometry">
            <mxPoint x="1105" y="440" as="sourcePoint" />
            <mxPoint x="1090" y="220" as="targetPoint" />
          </mxGeometry>
        </mxCell>
        <mxCell id="U0vqNQzGhyPI1oqfbdpY-18" value="" style="endArrow=classic;html=1;rounded=0;" parent="1" edge="1">
          <mxGeometry width="50" height="50" relative="1" as="geometry">
            <mxPoint x="844" y="303" as="sourcePoint" />
            <mxPoint x="1104" y="303" as="targetPoint" />
          </mxGeometry>
        </mxCell>
        <mxCell id="U0vqNQzGhyPI1oqfbdpY-19" value="&lt;b&gt;JWT &lt;/b&gt;Access Token" style="text;html=1;align=center;verticalAlign=middle;whiteSpace=wrap;rounded=0;" parent="1" vertex="1">
          <mxGeometry x="945" y="277" width="130" height="30" as="geometry" />
        </mxCell>
        <mxCell id="U0vqNQzGhyPI1oqfbdpY-21" value="" style="endArrow=classic;html=1;rounded=0;" parent="1" edge="1">
          <mxGeometry width="50" height="50" relative="1" as="geometry">
            <mxPoint x="1102" y="340" as="sourcePoint" />
            <mxPoint x="842" y="340" as="targetPoint" />
          </mxGeometry>
        </mxCell>
        <mxCell id="U0vqNQzGhyPI1oqfbdpY-22" value="&lt;b&gt;GrantedAuthority &lt;/b&gt;object having all Roles in the Access Token" style="text;html=1;align=center;verticalAlign=middle;whiteSpace=wrap;rounded=0;" parent="1" vertex="1">
          <mxGeometry x="880" y="350" width="200" height="30" as="geometry" />
        </mxCell>
        <mxCell id="U0vqNQzGhyPI1oqfbdpY-26" style="rounded=0;orthogonalLoop=1;jettySize=auto;html=1;exitX=1;exitY=0;exitDx=0;exitDy=0;endArrow=baseDash;endFill=0;" parent="1" source="U0vqNQzGhyPI1oqfbdpY-24" edge="1">
          <mxGeometry relative="1" as="geometry">
            <mxPoint x="840" y="260" as="targetPoint" />
          </mxGeometry>
        </mxCell>
        <mxCell id="U0vqNQzGhyPI1oqfbdpY-24" value="" style="shape=partialRectangle;whiteSpace=wrap;html=1;bottom=1;right=1;left=1;top=0;fillColor=none;routingCenterX=-0.5;rotation=-90;" parent="1" vertex="1">
          <mxGeometry x="875" y="260" width="25" height="25" as="geometry" />
        </mxCell>
        <mxCell id="U0vqNQzGhyPI1oqfbdpY-25" value="" style="endArrow=classic;html=1;rounded=0;exitX=0;exitY=0.75;exitDx=0;exitDy=0;" parent="1" source="U0vqNQzGhyPI1oqfbdpY-24" edge="1">
          <mxGeometry width="50" height="50" relative="1" as="geometry">
            <mxPoint x="990" y="260" as="sourcePoint" />
            <mxPoint x="840" y="285" as="targetPoint" />
          </mxGeometry>
        </mxCell>
        <mxCell id="U0vqNQzGhyPI1oqfbdpY-27" value="&lt;b&gt;validate&amp;nbsp;&lt;/b&gt;Access Token" style="text;html=1;align=center;verticalAlign=middle;whiteSpace=wrap;rounded=0;" parent="1" vertex="1">
          <mxGeometry x="900" y="254" width="130" height="30" as="geometry" />
        </mxCell>
        <mxCell id="U0vqNQzGhyPI1oqfbdpY-28" value="" style="endArrow=classic;html=1;rounded=0;" parent="1" edge="1">
          <mxGeometry width="50" height="50" relative="1" as="geometry">
            <mxPoint x="840" y="380" as="sourcePoint" />
            <mxPoint x="590" y="380" as="targetPoint" />
          </mxGeometry>
        </mxCell>
        <mxCell id="U0vqNQzGhyPI1oqfbdpY-29" value="" style="endArrow=classic;html=1;rounded=0;" parent="1" edge="1">
          <mxGeometry width="50" height="50" relative="1" as="geometry">
            <mxPoint x="590" y="423" as="sourcePoint" />
            <mxPoint x="346" y="423" as="targetPoint" />
          </mxGeometry>
        </mxCell>
        <mxCell id="4t_3A3ze6PCHeQ92FLgK-2" value="" style="shape=partialRectangle;whiteSpace=wrap;html=1;bottom=1;right=1;left=1;top=0;fillColor=none;routingCenterX=-0.5;rotation=90;" vertex="1" parent="1">
          <mxGeometry x="273" y="422" width="66" height="70" as="geometry" />
        </mxCell>
        <mxCell id="4t_3A3ze6PCHeQ92FLgK-3" value="" style="endArrow=classic;html=1;rounded=0;exitX=1;exitY=0.5;exitDx=0;exitDy=0;" edge="1" parent="1">
          <mxGeometry width="50" height="50" relative="1" as="geometry">
            <mxPoint x="305" y="490" as="sourcePoint" />
            <mxPoint x="344" y="490" as="targetPoint" />
          </mxGeometry>
        </mxCell>
        <mxCell id="4t_3A3ze6PCHeQ92FLgK-4" value="set &lt;b&gt;Authentication &lt;/b&gt;object to &lt;b&gt;SecurityContextHolder&lt;/b&gt;" style="text;html=1;align=center;verticalAlign=middle;whiteSpace=wrap;rounded=0;" vertex="1" parent="1">
          <mxGeometry x="140" y="439" width="130" height="30" as="geometry" />
        </mxCell>
        <mxCell id="4t_3A3ze6PCHeQ92FLgK-7" value="&lt;b&gt;&lt;font style=&quot;font-size: 13px;&quot;&gt;Resource Server&lt;/font&gt;&lt;/b&gt;" style="text;html=1;align=center;verticalAlign=middle;whiteSpace=wrap;rounded=0;" vertex="1" parent="1">
          <mxGeometry x="580" y="-14" width="120" height="30" as="geometry" />
        </mxCell>
        <mxCell id="4t_3A3ze6PCHeQ92FLgK-8" value="&lt;b&gt;9&lt;/b&gt;" style="ellipse;whiteSpace=wrap;html=1;aspect=fixed;fillColor=#008a00;strokeColor=#005700;fontColor=#ffffff;" vertex="1" parent="1">
          <mxGeometry x="120" y="439" width="24" height="24" as="geometry" />
        </mxCell>
        <mxCell id="4t_3A3ze6PCHeQ92FLgK-9" value="&lt;b&gt;5&lt;/b&gt;" style="ellipse;whiteSpace=wrap;html=1;aspect=fixed;fillColor=#008a00;strokeColor=#005700;fontColor=#ffffff;" vertex="1" parent="1">
          <mxGeometry x="903" y="235" width="24" height="24" as="geometry" />
        </mxCell>
        <mxCell id="4t_3A3ze6PCHeQ92FLgK-10" value="&lt;b&gt;3&lt;/b&gt;" style="ellipse;whiteSpace=wrap;html=1;aspect=fixed;fillColor=#008a00;strokeColor=#005700;fontColor=#ffffff;" vertex="1" parent="1">
          <mxGeometry x="626" y="226" width="24" height="24" as="geometry" />
        </mxCell>
        <mxCell id="4t_3A3ze6PCHeQ92FLgK-11" value="&lt;b&gt;2&lt;/b&gt;" style="ellipse;whiteSpace=wrap;html=1;aspect=fixed;fillColor=#008a00;strokeColor=#005700;fontColor=#ffffff;" vertex="1" parent="1">
          <mxGeometry x="376" y="163" width="24" height="24" as="geometry" />
        </mxCell>
        <mxCell id="4t_3A3ze6PCHeQ92FLgK-12" value="&lt;b&gt;1&lt;/b&gt;" style="ellipse;whiteSpace=wrap;html=1;aspect=fixed;fillColor=#008a00;strokeColor=#005700;fontColor=#ffffff;" vertex="1" parent="1">
          <mxGeometry x="128" y="104" width="24" height="24" as="geometry" />
        </mxCell>
        <mxCell id="4t_3A3ze6PCHeQ92FLgK-14" value="&lt;b&gt;6&lt;/b&gt;" style="ellipse;whiteSpace=wrap;html=1;aspect=fixed;fillColor=#008a00;strokeColor=#005700;fontColor=#ffffff;" vertex="1" parent="1">
          <mxGeometry x="927" y="277" width="24" height="24" as="geometry" />
        </mxCell>
        <mxCell id="4t_3A3ze6PCHeQ92FLgK-15" value="&lt;b&gt;7&lt;/b&gt;" style="ellipse;whiteSpace=wrap;html=1;aspect=fixed;fillColor=#008a00;strokeColor=#005700;fontColor=#ffffff;" vertex="1" parent="1">
          <mxGeometry x="856" y="356" width="24" height="24" as="geometry" />
        </mxCell>
        <mxCell id="4t_3A3ze6PCHeQ92FLgK-16" value="return &lt;b&gt;Authentication o&lt;/b&gt;bject after authentication and&amp;nbsp;&lt;b&gt; GrantedAuthority &lt;/b&gt;set to it" style="text;html=1;align=center;verticalAlign=middle;whiteSpace=wrap;rounded=0;" vertex="1" parent="1">
          <mxGeometry x="626" y="390" width="200" height="30" as="geometry" />
        </mxCell>
        <mxCell id="4t_3A3ze6PCHeQ92FLgK-17" value="&lt;b&gt;8&lt;/b&gt;" style="ellipse;whiteSpace=wrap;html=1;aspect=fixed;fillColor=#008a00;strokeColor=#005700;fontColor=#ffffff;" vertex="1" parent="1">
          <mxGeometry x="602" y="390" width="24" height="24" as="geometry" />
        </mxCell>
      </root>
    </mxGraphModel>
  </diagram>
</mxfile>
